<svg xmlns="http://www.w3.org/2000/svg" width="1200" height="600" viewBox="0 0 1200 600" fill="none">
  <defs>
    <linearGradient id="bg" x1="0" y1="0" x2="1200" y2="600" gradientUnits="userSpaceOnUse">
      <stop stop-color="#181226"/>
      <stop offset="1" stop-color="#29123f"/>
    </linearGradient>
  </defs>
  <rect width="1200" height="600" fill="url(#bg)"/>
  <rect x="80" y="70" width="660" height="380" rx="24" fill="#0F0A1A" stroke="#4C1D95" stroke-width="4"/>
  <rect x="120" y="120" width="580" height="290" rx="14" fill="#1E1630"/>
  <text x="410" y="170" text-anchor="middle" fill="#F5D0FE" font-size="36" font-family="Arial, sans-serif" font-weight="700">Finish all 31 questions</text>
  <text x="410" y="212" text-anchor="middle" fill="#D8B4FE" font-size="20" font-family="Arial, sans-serif">No skipping. No mercy.</text>
  <circle cx="910" cy="320" r="130" fill="#7E22CE"/>
  <circle cx="865" cy="210" r="42" fill="#7E22CE"/>
  <circle cx="955" cy="210" r="42" fill="#7E22CE"/>
  <rect x="825" y="300" width="170" height="42" rx="21" fill="#111827"/>
  <circle cx="873" cy="321" r="14" fill="#22D3EE"/>
  <circle cx="945" cy="321" r="14" fill="#22D3EE"/>
  <path d="M850 365C875 392 944 392 970 365" stroke="#FDE68A" stroke-width="8" stroke-linecap="round"/>
  <text x="905" y="494" text-anchor="middle" fill="#F5D0FE" font-size="28" font-family="Arial, sans-serif" font-weight="700">Answer first, talk later</text>
  <g fill="#A78BFA" stroke="#DDD6FE" stroke-width="2" font-family="Arial, sans-serif">
    <rect x="790" y="70" width="72" height="40" rx="20"/><text x="826" y="96" text-anchor="middle" fill="#0B0014" font-size="20" font-weight="700">31</text>
    <rect x="970" y="88" width="82" height="40" rx="20"/><text x="1011" y="114" text-anchor="middle" fill="#0B0014" font-size="20" font-weight="700">SBTI</text>
    <rect x="1020" y="260" width="92" height="40" rx="20"/><text x="1066" y="286" text-anchor="middle" fill="#0B0014" font-size="20" font-weight="700">100%</text>
  </g>
</svg>
